<?xml version="1.0" encoding="UTF-8" standalone="no"?>
<!-- Created with Inkscape (http://www.inkscape.org/) -->

<svg
   xmlns:dc="http://purl.org/dc/elements/1.1/"
   xmlns:cc="http://creativecommons.org/ns#"
   xmlns:rdf="http://www.w3.org/1999/02/22-rdf-syntax-ns#"
   xmlns:svg="http://www.w3.org/2000/svg"
   xmlns="http://www.w3.org/2000/svg"
   xmlns:sodipodi="http://sodipodi.sourceforge.net/DTD/sodipodi-0.dtd"
   xmlns:inkscape="http://www.inkscape.org/namespaces/inkscape"
   width="210mm"
   height="297mm"
   id="svg2"
   version="1.1"
   inkscape:version="0.91 r13725"
   sodipodi:docname="tiles.svg">
  <defs
     id="defs4" />
  <sodipodi:namedview
     id="base"
     pagecolor="#ffffff"
     bordercolor="#666666"
     borderopacity="1.0"
     inkscape:pageopacity="0.0"
     inkscape:pageshadow="2"
     inkscape:zoom="0.175"
     inkscape:cx="-471.11505"
     inkscape:cy="1449.9873"
     inkscape:document-units="px"
     inkscape:current-layer="layer1"
     showgrid="false"
     inkscape:window-width="1920"
     inkscape:window-height="1017"
     inkscape:window-x="-8"
     inkscape:window-y="-8"
     inkscape:window-maximized="1" />
  <metadata
     id="metadata7">
    <rdf:RDF>
      <cc:Work
         rdf:about="">
        <dc:format>image/svg+xml</dc:format>
        <dc:type
           rdf:resource="http://purl.org/dc/dcmitype/StillImage" />
        <dc:title></dc:title>
      </cc:Work>
    </rdf:RDF>
  </metadata>
  <g
     inkscape:label="Ebene 1"
     inkscape:groupmode="layer"
     id="layer1">
    <path
       sodipodi:type="star"
       style="opacity:1;fill:#ff6600;fill-opacity:1;stroke:#000000;stroke-width:5;stroke-miterlimit:4;stroke-dasharray:none;stroke-opacity:1"
       id="path2987"
       sodipodi:sides="6"
       sodipodi:cx="717.14288"
       sodipodi:cy="223.79076"
       sodipodi:r1="300"
       sodipodi:r2="259.80762"
       sodipodi:arg1="0"
       sodipodi:arg2="0.52359878"
       inkscape:flatsided="true"
       inkscape:rounded="0"
       inkscape:randomized="2.77556e-017"
       d="m 1017.1429,223.79076 -150.00002,259.80762 -300,0 -150,-259.80762 150,-259.807625 300,0 z"
       transform="matrix(0.46851879,0,0,0.47280792,1354.2379,131.39819)" />
    <path
       style="opacity:1;fill:#55ddff;fill-opacity:1;stroke:#000000;stroke-width:2.35329223;stroke-miterlimit:4;stroke-dasharray:none;stroke-opacity:1"
       d="m 1619.9272,114.3911 -70.25,122.8125 70.25,122.84374 67.4375,0 0,-245.65624 -67.4375,0 z"
       id="path2987-1"
       inkscape:connector-curvature="0" />
    <path
       sodipodi:type="star"
       style="opacity:1;fill:#ff6600;fill-opacity:1;stroke:#000000;stroke-width:5;stroke-miterlimit:4;stroke-dasharray:none;stroke-opacity:1"
       id="path2987-0"
       sodipodi:sides="6"
       sodipodi:cx="717.14288"
       sodipodi:cy="223.79076"
       sodipodi:r1="300"
       sodipodi:r2="259.80762"
       sodipodi:arg1="0"
       sodipodi:arg2="0.52359878"
       inkscape:flatsided="true"
       inkscape:rounded="0"
       inkscape:randomized="2.77556e-017"
       d="m 1017.1429,223.79076 -150.00002,259.80762 -300,0 -150,-259.80762 150,-259.807625 300,0 z"
       transform="matrix(0.46851879,0,0,0.47280792,1730.77,131.39819)" />
    <path
       style="opacity:1;fill:#00ff66;fill-opacity:1;stroke:#000000;stroke-width:2.35329223;stroke-miterlimit:4;stroke-dasharray:none;stroke-opacity:1"
       d="m 1996.4592,114.3911 -70.25,122.8125 70.25,122.84374 67.4375,0 0,-245.65624 -67.4375,0 z"
       id="path2987-1-9"
       inkscape:connector-curvature="0" />
    <path
       transform="matrix(0.46851879,0,0,0.47280792,1354.2379,411.39819)"
       d="m 1017.1429,223.79076 -150.00002,259.80762 -300,0 -150,-259.80762 150,-259.807625 300,0 z"
       inkscape:randomized="2.77556e-017"
       inkscape:rounded="0"
       inkscape:flatsided="true"
       sodipodi:arg2="0.52359878"
       sodipodi:arg1="0"
       sodipodi:r2="259.80762"
       sodipodi:r1="300"
       sodipodi:cy="223.79076"
       sodipodi:cx="717.14288"
       sodipodi:sides="6"
       id="path3046"
       style="opacity:1;fill:#ff6600;fill-opacity:1;stroke:#000000;stroke-width:5;stroke-miterlimit:4;stroke-dasharray:none;stroke-opacity:1"
       sodipodi:type="star" />
    <path
       inkscape:connector-curvature="0"
       id="path3048"
       d="m 1619.9272,394.3911 -70.25,122.8125 70.25,122.84374 67.4375,0 0,-245.65624 -67.4375,0 z"
       style="opacity:1;fill:#ff6600;fill-opacity:1;stroke:#000000;stroke-width:2.35329223;stroke-miterlimit:4;stroke-dasharray:none;stroke-opacity:1" />
    <path
       transform="matrix(0.46851879,0,0,0.47280792,1730.77,411.39819)"
       d="m 1017.1429,223.79076 -150.00002,259.80762 -300,0 -150,-259.80762 150,-259.807625 300,0 z"
       inkscape:randomized="2.77556e-017"
       inkscape:rounded="0"
       inkscape:flatsided="true"
       sodipodi:arg2="0.52359878"
       sodipodi:arg1="0"
       sodipodi:r2="259.80762"
       sodipodi:r1="300"
       sodipodi:cy="223.79076"
       sodipodi:cx="717.14288"
       sodipodi:sides="6"
       id="path3050"
       style="opacity:1;fill:#ff6600;fill-opacity:1;stroke:#000000;stroke-width:5;stroke-miterlimit:4;stroke-dasharray:none;stroke-opacity:1"
       sodipodi:type="star" />
    <path
       inkscape:connector-curvature="0"
       id="path3052"
       d="m 1996.4592,394.3911 -70.25,122.8125 70.25,122.84374 67.4375,0 0,-245.65624 -67.4375,0 z"
       style="opacity:1;fill:#ffd42a;fill-opacity:1;stroke:#000000;stroke-width:2.35329223;stroke-miterlimit:4;stroke-dasharray:none;stroke-opacity:1" />
    <path
       sodipodi:type="star"
       style="opacity:1;fill:#ff6600;fill-opacity:1;stroke:#000000;stroke-width:5;stroke-miterlimit:4;stroke-dasharray:none;stroke-opacity:1"
       id="path3054"
       sodipodi:sides="6"
       sodipodi:cx="717.14288"
       sodipodi:cy="223.79076"
       sodipodi:r1="300"
       sodipodi:r2="259.80762"
       sodipodi:arg1="0"
       sodipodi:arg2="0.52359878"
       inkscape:flatsided="true"
       inkscape:rounded="0"
       inkscape:randomized="2.77556e-017"
       d="m 1017.1429,223.79076 -150.00002,259.80762 -300,0 -150,-259.80762 150,-259.807625 300,0 z"
       transform="matrix(0.46851879,0,0,0.47280792,1354.2379,691.39819)" />
    <path
       style="opacity:1;fill:#6c5d53;fill-opacity:1;stroke:#000000;stroke-width:2.35329223;stroke-miterlimit:4;stroke-dasharray:none;stroke-opacity:1"
       d="m 1619.9272,674.3911 -70.25,122.8125 70.25,122.84377 67.4375,0 0,-245.65627 -67.4375,0 z"
       id="path3056"
       inkscape:connector-curvature="0" />
    <path
       sodipodi:type="star"
       style="opacity:1;fill:#ff6600;fill-opacity:1;stroke:#000000;stroke-width:5;stroke-miterlimit:4;stroke-dasharray:none;stroke-opacity:1"
       id="path3058"
       sodipodi:sides="6"
       sodipodi:cx="717.14288"
       sodipodi:cy="223.79076"
       sodipodi:r1="300"
       sodipodi:r2="259.80762"
       sodipodi:arg1="0"
       sodipodi:arg2="0.52359878"
       inkscape:flatsided="true"
       inkscape:rounded="0"
       inkscape:randomized="2.77556e-017"
       d="m 1017.1429,223.79076 -150.00002,259.80762 -300,0 -150,-259.80762 150,-259.807625 300,0 z"
       transform="matrix(0.46851879,0,0,0.47280792,1730.77,691.39819)" />
    <path
       style="opacity:1;fill:#d40000;fill-opacity:1;stroke:#000000;stroke-width:2.35329223;stroke-miterlimit:4;stroke-dasharray:none;stroke-opacity:1"
       d="m 1996.4592,674.3911 -70.25,122.8125 70.25,122.84377 67.4375,0 0,-245.65627 -67.4375,0 z"
       id="path3060"
       inkscape:connector-curvature="0" />
    <path
       transform="matrix(0.46851879,0,0,0.47280792,1337.095,1185.6839)"
       d="m 1017.1429,223.79076 -150.00002,259.80762 -300,0 -150,-259.80762 150,-259.807625 300,0 z"
       inkscape:randomized="2.77556e-017"
       inkscape:rounded="0"
       inkscape:flatsided="true"
       sodipodi:arg2="0.52359878"
       sodipodi:arg1="0"
       sodipodi:r2="259.80762"
       sodipodi:r1="300"
       sodipodi:cy="223.79076"
       sodipodi:cx="717.14288"
       sodipodi:sides="6"
       id="path3062"
       style="opacity:1;fill:#d40000;fill-opacity:1;stroke:#000000;stroke-width:5;stroke-miterlimit:4;stroke-dasharray:none;stroke-opacity:1"
       sodipodi:type="star" />
    <path
       inkscape:connector-curvature="0"
       id="path3064"
       d="m 1602.7843,1168.6768 -70.25,122.8125 70.25,122.8438 67.4375,0 0,-245.6563 -67.4375,0 z"
       style="opacity:1;fill:#55ddff;fill-opacity:1;stroke:#000000;stroke-width:2.35329223;stroke-miterlimit:4;stroke-dasharray:none;stroke-opacity:1" />
    <path
       transform="matrix(0.46851879,0,0,0.47280792,1713.6271,1185.6839)"
       d="m 1017.1429,223.79076 -150.00002,259.80762 -300,0 -150,-259.80762 150,-259.807625 300,0 z"
       inkscape:randomized="2.77556e-017"
       inkscape:rounded="0"
       inkscape:flatsided="true"
       sodipodi:arg2="0.52359878"
       sodipodi:arg1="0"
       sodipodi:r2="259.80762"
       sodipodi:r1="300"
       sodipodi:cy="223.79076"
       sodipodi:cx="717.14288"
       sodipodi:sides="6"
       id="path3066"
       style="opacity:1;fill:#d40000;fill-opacity:1;stroke:#000000;stroke-width:5;stroke-miterlimit:4;stroke-dasharray:none;stroke-opacity:1"
       sodipodi:type="star" />
    <path
       inkscape:connector-curvature="0"
       id="path3068"
       d="m 1979.3163,1168.6768 -70.25,122.8125 70.25,122.8438 67.4375,0 0,-245.6563 -67.4375,0 z"
       style="opacity:1;fill:#00ff66;fill-opacity:1;stroke:#000000;stroke-width:2.35329223;stroke-miterlimit:4;stroke-dasharray:none;stroke-opacity:1" />
    <path
       sodipodi:type="star"
       style="opacity:1;fill:#d40000;fill-opacity:1;stroke:#000000;stroke-width:5;stroke-miterlimit:4;stroke-dasharray:none;stroke-opacity:1"
       id="path3070"
       sodipodi:sides="6"
       sodipodi:cx="717.14288"
       sodipodi:cy="223.79076"
       sodipodi:r1="300"
       sodipodi:r2="259.80762"
       sodipodi:arg1="0"
       sodipodi:arg2="0.52359878"
       inkscape:flatsided="true"
       inkscape:rounded="0"
       inkscape:randomized="2.77556e-017"
       d="m 1017.1429,223.79076 -150.00002,259.80762 -300,0 -150,-259.80762 150,-259.807625 300,0 z"
       transform="matrix(0.46851879,0,0,0.47280792,1337.095,1465.6839)" />
    <path
       style="opacity:1;fill:#ff6600;fill-opacity:1;stroke:#000000;stroke-width:2.35329223;stroke-miterlimit:4;stroke-dasharray:none;stroke-opacity:1"
       d="m 1602.7843,1448.6768 -70.25,122.8125 70.25,122.8438 67.4375,0 0,-245.6563 -67.4375,0 z"
       id="path3072"
       inkscape:connector-curvature="0" />
    <path
       sodipodi:type="star"
       style="opacity:1;fill:#d40000;fill-opacity:1;stroke:#000000;stroke-width:5;stroke-miterlimit:4;stroke-dasharray:none;stroke-opacity:1"
       id="path3074"
       sodipodi:sides="6"
       sodipodi:cx="717.14288"
       sodipodi:cy="223.79076"
       sodipodi:r1="300"
       sodipodi:r2="259.80762"
       sodipodi:arg1="0"
       sodipodi:arg2="0.52359878"
       inkscape:flatsided="true"
       inkscape:rounded="0"
       inkscape:randomized="2.77556e-017"
       d="m 1017.1429,223.79076 -150.00002,259.80762 -300,0 -150,-259.80762 150,-259.807625 300,0 z"
       transform="matrix(0.46851879,0,0,0.47280792,1713.6271,1465.6839)" />
    <path
       style="opacity:1;fill:#ffd42a;fill-opacity:1;stroke:#000000;stroke-width:2.35329223;stroke-miterlimit:4;stroke-dasharray:none;stroke-opacity:1"
       d="m 1979.3163,1448.6768 -70.25,122.8125 70.25,122.8438 67.4375,0 0,-245.6563 -67.4375,0 z"
       id="path3076"
       inkscape:connector-curvature="0" />
    <path
       transform="matrix(0.46851879,0,0,0.47280792,1337.095,1745.6839)"
       d="m 1017.1429,223.79076 -150.00002,259.80762 -300,0 -150,-259.80762 150,-259.807625 300,0 z"
       inkscape:randomized="2.77556e-017"
       inkscape:rounded="0"
       inkscape:flatsided="true"
       sodipodi:arg2="0.52359878"
       sodipodi:arg1="0"
       sodipodi:r2="259.80762"
       sodipodi:r1="300"
       sodipodi:cy="223.79076"
       sodipodi:cx="717.14288"
       sodipodi:sides="6"
       id="path3078"
       style="opacity:1;fill:#d40000;fill-opacity:1;stroke:#000000;stroke-width:5;stroke-miterlimit:4;stroke-dasharray:none;stroke-opacity:1"
       sodipodi:type="star" />
    <path
       inkscape:connector-curvature="0"
       id="path3080"
       d="m 1602.7843,1728.6768 -70.25,122.8125 70.25,122.8438 67.4375,0 0,-245.6563 -67.4375,0 z"
       style="opacity:1;fill:#6c5d53;fill-opacity:1;stroke:#000000;stroke-width:2.35329223;stroke-miterlimit:4;stroke-dasharray:none;stroke-opacity:1" />
    <path
       transform="matrix(0.46851879,0,0,0.47280792,1713.6271,1745.6839)"
       d="m 1017.1429,223.79076 -150.00002,259.80762 -300,0 -150,-259.80762 150,-259.807625 300,0 z"
       inkscape:randomized="2.77556e-017"
       inkscape:rounded="0"
       inkscape:flatsided="true"
       sodipodi:arg2="0.52359878"
       sodipodi:arg1="0"
       sodipodi:r2="259.80762"
       sodipodi:r1="300"
       sodipodi:cy="223.79076"
       sodipodi:cx="717.14288"
       sodipodi:sides="6"
       id="path3082"
       style="opacity:1;fill:#d40000;fill-opacity:1;stroke:#000000;stroke-width:5;stroke-miterlimit:4;stroke-dasharray:none;stroke-opacity:1"
       sodipodi:type="star" />
    <path
       inkscape:connector-curvature="0"
       id="path3084"
       d="m 1979.3163,1728.6768 -70.25,122.8125 70.25,122.8438 67.4375,0 0,-245.6563 -67.4375,0 z"
       style="opacity:1;fill:#d40000;fill-opacity:1;stroke:#000000;stroke-width:2.35329223;stroke-miterlimit:4;stroke-dasharray:none;stroke-opacity:1" />
    <path
       transform="matrix(0.46851879,0,0,0.47280792,594.23787,131.39819)"
       d="m 1017.1429,223.79076 -150.00002,259.80762 -300,0 -150,-259.80762 150,-259.807625 300,0 z"
       inkscape:randomized="2.77556e-017"
       inkscape:rounded="0"
       inkscape:flatsided="true"
       sodipodi:arg2="0.52359878"
       sodipodi:arg1="0"
       sodipodi:r2="259.80762"
       sodipodi:r1="300"
       sodipodi:cy="223.79076"
       sodipodi:cx="717.14288"
       sodipodi:sides="6"
       id="path3173"
       style="opacity:1;fill:#00ff66;fill-opacity:1;stroke:#000000;stroke-width:5;stroke-miterlimit:4;stroke-dasharray:none;stroke-opacity:1"
       sodipodi:type="star" />
    <path
       inkscape:connector-curvature="0"
       id="path3175"
       d="m 859.92717,114.3911 -70.25,122.8125 70.25,122.84374 67.4375,0 0,-245.65624 -67.4375,0 z"
       style="opacity:1;fill:#55ddff;fill-opacity:1;stroke:#000000;stroke-width:2.35329223;stroke-miterlimit:4;stroke-dasharray:none;stroke-opacity:1" />
    <path
       transform="matrix(0.46851879,0,0,0.47280792,970.76997,131.39819)"
       d="m 1017.1429,223.79076 -150.00002,259.80762 -300,0 -150,-259.80762 150,-259.807625 300,0 z"
       inkscape:randomized="2.77556e-017"
       inkscape:rounded="0"
       inkscape:flatsided="true"
       sodipodi:arg2="0.52359878"
       sodipodi:arg1="0"
       sodipodi:r2="259.80762"
       sodipodi:r1="300"
       sodipodi:cy="223.79076"
       sodipodi:cx="717.14288"
       sodipodi:sides="6"
       id="path3177"
       style="opacity:1;fill:#00ff66;fill-opacity:1;stroke:#000000;stroke-width:5;stroke-miterlimit:4;stroke-dasharray:none;stroke-opacity:1"
       sodipodi:type="star" />
    <path
       inkscape:connector-curvature="0"
       id="path3179"
       d="m 1236.4592,114.3911 -70.25,122.8125 70.25,122.84374 67.4375,0 0,-245.65624 -67.4375,0 z"
       style="opacity:1;fill:#00ff66;fill-opacity:1;stroke:#000000;stroke-width:2.35329223;stroke-miterlimit:4;stroke-dasharray:none;stroke-opacity:1" />
    <path
       sodipodi:type="star"
       style="opacity:1;fill:#00ff66;fill-opacity:1;stroke:#000000;stroke-width:5;stroke-miterlimit:4;stroke-dasharray:none;stroke-opacity:1"
       id="path3181"
       sodipodi:sides="6"
       sodipodi:cx="717.14288"
       sodipodi:cy="223.79076"
       sodipodi:r1="300"
       sodipodi:r2="259.80762"
       sodipodi:arg1="0"
       sodipodi:arg2="0.52359878"
       inkscape:flatsided="true"
       inkscape:rounded="0"
       inkscape:randomized="2.77556e-017"
       d="m 1017.1429,223.79076 -150.00002,259.80762 -300,0 -150,-259.80762 150,-259.807625 300,0 z"
       transform="matrix(0.46851879,0,0,0.47280792,594.23787,411.39819)" />
    <path
       style="opacity:1;fill:#ff6600;fill-opacity:1;stroke:#000000;stroke-width:2.35329223;stroke-miterlimit:4;stroke-dasharray:none;stroke-opacity:1"
       d="m 859.92717,394.3911 -70.25,122.8125 70.25,122.84374 67.4375,0 0,-245.65624 -67.4375,0 z"
       id="path3183"
       inkscape:connector-curvature="0" />
    <path
       sodipodi:type="star"
       style="opacity:1;fill:#00ff66;fill-opacity:1;stroke:#000000;stroke-width:5;stroke-miterlimit:4;stroke-dasharray:none;stroke-opacity:1"
       id="path3185"
       sodipodi:sides="6"
       sodipodi:cx="717.14288"
       sodipodi:cy="223.79076"
       sodipodi:r1="300"
       sodipodi:r2="259.80762"
       sodipodi:arg1="0"
       sodipodi:arg2="0.52359878"
       inkscape:flatsided="true"
       inkscape:rounded="0"
       inkscape:randomized="2.77556e-017"
       d="m 1017.1429,223.79076 -150.00002,259.80762 -300,0 -150,-259.80762 150,-259.807625 300,0 z"
       transform="matrix(0.46851879,0,0,0.47280792,970.76997,411.39819)" />
    <path
       style="opacity:1;fill:#ffd42a;fill-opacity:1;stroke:#000000;stroke-width:2.35329223;stroke-miterlimit:4;stroke-dasharray:none;stroke-opacity:1"
       d="m 1236.4592,394.3911 -70.25,122.8125 70.25,122.84374 67.4375,0 0,-245.65624 -67.4375,0 z"
       id="path3187"
       inkscape:connector-curvature="0" />
    <path
       transform="matrix(0.46851879,0,0,0.47280792,594.23787,691.39819)"
       d="m 1017.1429,223.79076 -150.00002,259.80762 -300,0 -150,-259.80762 150,-259.807625 300,0 z"
       inkscape:randomized="2.77556e-017"
       inkscape:rounded="0"
       inkscape:flatsided="true"
       sodipodi:arg2="0.52359878"
       sodipodi:arg1="0"
       sodipodi:r2="259.80762"
       sodipodi:r1="300"
       sodipodi:cy="223.79076"
       sodipodi:cx="717.14288"
       sodipodi:sides="6"
       id="path3189"
       style="opacity:1;fill:#00ff66;fill-opacity:1;stroke:#000000;stroke-width:5;stroke-miterlimit:4;stroke-dasharray:none;stroke-opacity:1"
       sodipodi:type="star" />
    <path
       inkscape:connector-curvature="0"
       id="path3191"
       d="m 859.92717,674.3911 -70.25,122.8125 70.25,122.84377 67.4375,0 0,-245.65627 -67.4375,0 z"
       style="opacity:1;fill:#6c5d53;fill-opacity:1;stroke:#000000;stroke-width:2.35329223;stroke-miterlimit:4;stroke-dasharray:none;stroke-opacity:1" />
    <path
       transform="matrix(0.46851879,0,0,0.47280792,970.76997,691.39819)"
       d="m 1017.1429,223.79076 -150.00002,259.80762 -300,0 -150,-259.80762 150,-259.807625 300,0 z"
       inkscape:randomized="2.77556e-017"
       inkscape:rounded="0"
       inkscape:flatsided="true"
       sodipodi:arg2="0.52359878"
       sodipodi:arg1="0"
       sodipodi:r2="259.80762"
       sodipodi:r1="300"
       sodipodi:cy="223.79076"
       sodipodi:cx="717.14288"
       sodipodi:sides="6"
       id="path3193"
       style="opacity:1;fill:#00ff66;fill-opacity:1;stroke:#000000;stroke-width:5;stroke-miterlimit:4;stroke-dasharray:none;stroke-opacity:1"
       sodipodi:type="star" />
    <path
       inkscape:connector-curvature="0"
       id="path3195"
       d="m 1236.4592,674.3911 -70.25,122.8125 70.25,122.84377 67.4375,0 0,-245.65627 -67.4375,0 z"
       style="opacity:1;fill:#d40000;fill-opacity:1;stroke:#000000;stroke-width:2.35329223;stroke-miterlimit:4;stroke-dasharray:none;stroke-opacity:1" />
    <path
       sodipodi:type="star"
       style="opacity:1;fill:#6c5d53;fill-opacity:1;stroke:#000000;stroke-width:5;stroke-miterlimit:4;stroke-dasharray:none;stroke-opacity:1"
       id="path3197"
       sodipodi:sides="6"
       sodipodi:cx="717.14288"
       sodipodi:cy="223.79076"
       sodipodi:r1="300"
       sodipodi:r2="259.80762"
       sodipodi:arg1="0"
       sodipodi:arg2="0.52359878"
       inkscape:flatsided="true"
       inkscape:rounded="0"
       inkscape:randomized="2.77556e-017"
       d="m 1017.1429,223.79076 -150.00002,259.80762 -300,0 -150,-259.80762 150,-259.807625 300,0 z"
       transform="matrix(0.46851879,0,0,0.47280792,577.09501,1185.6839)" />
    <path
       style="opacity:1;fill:#55ddff;fill-opacity:1;stroke:#000000;stroke-width:2.35329223;stroke-miterlimit:4;stroke-dasharray:none;stroke-opacity:1"
       d="m 842.78431,1168.6768 -70.25,122.8125 70.25,122.8438 67.4375,0 0,-245.6563 -67.4375,0 z"
       id="path3199"
       inkscape:connector-curvature="0" />
    <path
       sodipodi:type="star"
       style="opacity:1;fill:#6c5d53;fill-opacity:1;stroke:#000000;stroke-width:5;stroke-miterlimit:4;stroke-dasharray:none;stroke-opacity:1"
       id="path3201"
       sodipodi:sides="6"
       sodipodi:cx="717.14288"
       sodipodi:cy="223.79076"
       sodipodi:r1="300"
       sodipodi:r2="259.80762"
       sodipodi:arg1="0"
       sodipodi:arg2="0.52359878"
       inkscape:flatsided="true"
       inkscape:rounded="0"
       inkscape:randomized="2.77556e-017"
       d="m 1017.1429,223.79076 -150.00002,259.80762 -300,0 -150,-259.80762 150,-259.807625 300,0 z"
       transform="matrix(0.46851879,0,0,0.47280792,953.62711,1185.6839)" />
    <path
       style="opacity:1;fill:#00ff66;fill-opacity:1;stroke:#000000;stroke-width:2.35329223;stroke-miterlimit:4;stroke-dasharray:none;stroke-opacity:1"
       d="m 1219.3163,1168.6768 -70.25,122.8125 70.25,122.8438 67.4375,0 0,-245.6563 -67.4375,0 z"
       id="path3203"
       inkscape:connector-curvature="0" />
    <path
       transform="matrix(0.46851879,0,0,0.47280792,577.09501,1465.6839)"
       d="m 1017.1429,223.79076 -150.00002,259.80762 -300,0 -150,-259.80762 150,-259.807625 300,0 z"
       inkscape:randomized="2.77556e-017"
       inkscape:rounded="0"
       inkscape:flatsided="true"
       sodipodi:arg2="0.52359878"
       sodipodi:arg1="0"
       sodipodi:r2="259.80762"
       sodipodi:r1="300"
       sodipodi:cy="223.79076"
       sodipodi:cx="717.14288"
       sodipodi:sides="6"
       id="path3205"
       style="opacity:1;fill:#6c5d53;fill-opacity:1;stroke:#000000;stroke-width:5;stroke-miterlimit:4;stroke-dasharray:none;stroke-opacity:1"
       sodipodi:type="star" />
    <path
       inkscape:connector-curvature="0"
       id="path3207"
       d="m 842.78431,1448.6768 -70.25,122.8125 70.25,122.8438 67.4375,0 0,-245.6563 -67.4375,0 z"
       style="opacity:1;fill:#ff6600;fill-opacity:1;stroke:#000000;stroke-width:2.35329223;stroke-miterlimit:4;stroke-dasharray:none;stroke-opacity:1" />
    <path
       transform="matrix(0.46851879,0,0,0.47280792,953.62711,1465.6839)"
       d="m 1017.1429,223.79076 -150.00002,259.80762 -300,0 -150,-259.80762 150,-259.807625 300,0 z"
       inkscape:randomized="2.77556e-017"
       inkscape:rounded="0"
       inkscape:flatsided="true"
       sodipodi:arg2="0.52359878"
       sodipodi:arg1="0"
       sodipodi:r2="259.80762"
       sodipodi:r1="300"
       sodipodi:cy="223.79076"
       sodipodi:cx="717.14288"
       sodipodi:sides="6"
       id="path3209"
       style="opacity:1;fill:#6c5d53;fill-opacity:1;stroke:#000000;stroke-width:5;stroke-miterlimit:4;stroke-dasharray:none;stroke-opacity:1"
       sodipodi:type="star" />
    <path
       inkscape:connector-curvature="0"
       id="path3211"
       d="m 1219.3163,1448.6768 -70.25,122.8125 70.25,122.8438 67.4375,0 0,-245.6563 -67.4375,0 z"
       style="opacity:1;fill:#ffd42a;fill-opacity:1;stroke:#000000;stroke-width:2.35329223;stroke-miterlimit:4;stroke-dasharray:none;stroke-opacity:1" />
    <path
       sodipodi:type="star"
       style="opacity:1;fill:#6c5d53;fill-opacity:1;stroke:#000000;stroke-width:5;stroke-miterlimit:4;stroke-dasharray:none;stroke-opacity:1"
       id="path3213"
       sodipodi:sides="6"
       sodipodi:cx="717.14288"
       sodipodi:cy="223.79076"
       sodipodi:r1="300"
       sodipodi:r2="259.80762"
       sodipodi:arg1="0"
       sodipodi:arg2="0.52359878"
       inkscape:flatsided="true"
       inkscape:rounded="0"
       inkscape:randomized="2.77556e-017"
       d="m 1017.1429,223.79076 -150.00002,259.80762 -300,0 -150,-259.80762 150,-259.807625 300,0 z"
       transform="matrix(0.46851879,0,0,0.47280792,577.09501,1745.6839)" />
    <path
       style="opacity:1;fill:#6c5d53;fill-opacity:1;stroke:#000000;stroke-width:2.35329223;stroke-miterlimit:4;stroke-dasharray:none;stroke-opacity:1"
       d="m 842.78431,1728.6768 -70.25,122.8125 70.25,122.8438 67.4375,0 0,-245.6563 -67.4375,0 z"
       id="path3215"
       inkscape:connector-curvature="0" />
    <path
       sodipodi:type="star"
       style="opacity:1;fill:#6c5d53;fill-opacity:1;stroke:#000000;stroke-width:5;stroke-miterlimit:4;stroke-dasharray:none;stroke-opacity:1"
       id="path3217"
       sodipodi:sides="6"
       sodipodi:cx="717.14288"
       sodipodi:cy="223.79076"
       sodipodi:r1="300"
       sodipodi:r2="259.80762"
       sodipodi:arg1="0"
       sodipodi:arg2="0.52359878"
       inkscape:flatsided="true"
       inkscape:rounded="0"
       inkscape:randomized="2.77556e-017"
       d="m 1017.1429,223.79076 -150.00002,259.80762 -300,0 -150,-259.80762 150,-259.807625 300,0 z"
       transform="matrix(0.46851879,0,0,0.47280792,953.62711,1745.6839)" />
    <path
       style="opacity:1;fill:#d40000;fill-opacity:1;stroke:#000000;stroke-width:2.35329223;stroke-miterlimit:4;stroke-dasharray:none;stroke-opacity:1"
       d="m 1219.3163,1728.6768 -70.25,122.8125 70.25,122.8438 67.4375,0 0,-245.6563 -67.4375,0 z"
       id="path3219"
       inkscape:connector-curvature="0" />
    <path
       sodipodi:type="star"
       style="opacity:1;fill:#55ddff;fill-opacity:1;stroke:#000000;stroke-width:5;stroke-miterlimit:4;stroke-dasharray:none;stroke-opacity:1"
       id="path3221"
       sodipodi:sides="6"
       sodipodi:cx="717.14288"
       sodipodi:cy="223.79076"
       sodipodi:r1="300"
       sodipodi:r2="259.80762"
       sodipodi:arg1="0"
       sodipodi:arg2="0.52359878"
       inkscape:flatsided="true"
       inkscape:rounded="0"
       inkscape:randomized="2.77556e-017"
       d="m 1017.1429,223.79076 -150.00002,259.80762 -300,0 -150,-259.80762 150,-259.807625 300,0 z"
       transform="matrix(0.46851879,0,0,0.47280792,-145.76208,131.39819)" />
    <path
       style="opacity:1;fill:#55ddff;fill-opacity:1;stroke:#000000;stroke-width:2.35329223;stroke-miterlimit:4;stroke-dasharray:none;stroke-opacity:1"
       d="m 119.92712,114.3911 -70.250004,122.8125 70.250004,122.84374 67.4375,0 0,-245.65624 -67.4375,0 z"
       id="path3223"
       inkscape:connector-curvature="0" />
    <path
       sodipodi:type="star"
       style="opacity:1;fill:#55ddff;fill-opacity:1;stroke:#000000;stroke-width:5;stroke-miterlimit:4;stroke-dasharray:none;stroke-opacity:1"
       id="path3225"
       sodipodi:sides="6"
       sodipodi:cx="717.14288"
       sodipodi:cy="223.79076"
       sodipodi:r1="300"
       sodipodi:r2="259.80762"
       sodipodi:arg1="0"
       sodipodi:arg2="0.52359878"
       inkscape:flatsided="true"
       inkscape:rounded="0"
       inkscape:randomized="2.77556e-017"
       d="m 1017.1429,223.79076 -150.00002,259.80762 -300,0 -150,-259.80762 150,-259.807625 300,0 z"
       transform="matrix(0.46851879,0,0,0.47280792,230.76992,131.39819)" />
    <path
       style="opacity:1;fill:#00ff66;fill-opacity:1;stroke:#000000;stroke-width:2.35329223;stroke-miterlimit:4;stroke-dasharray:none;stroke-opacity:1"
       d="m 496.45912,114.3911 -70.25,122.8125 70.25,122.84374 67.43755,0 0,-245.65624 -67.43755,0 z"
       id="path3227"
       inkscape:connector-curvature="0" />
    <path
       transform="matrix(0.46851879,0,0,0.47280792,-145.76208,411.39819)"
       d="m 1017.1429,223.79076 -150.00002,259.80762 -300,0 -150,-259.80762 150,-259.807625 300,0 z"
       inkscape:randomized="2.77556e-017"
       inkscape:rounded="0"
       inkscape:flatsided="true"
       sodipodi:arg2="0.52359878"
       sodipodi:arg1="0"
       sodipodi:r2="259.80762"
       sodipodi:r1="300"
       sodipodi:cy="223.79076"
       sodipodi:cx="717.14288"
       sodipodi:sides="6"
       id="path3229"
       style="opacity:1;fill:#55ddff;fill-opacity:1;stroke:#000000;stroke-width:5;stroke-miterlimit:4;stroke-dasharray:none;stroke-opacity:1"
       sodipodi:type="star" />
    <path
       inkscape:connector-curvature="0"
       id="path3231"
       d="m 119.92712,394.3911 -70.250004,122.8125 70.250004,122.84374 67.4375,0 0,-245.65624 -67.4375,0 z"
       style="opacity:1;fill:#ff6600;fill-opacity:1;stroke:#000000;stroke-width:2.35329223;stroke-miterlimit:4;stroke-dasharray:none;stroke-opacity:1" />
    <path
       transform="matrix(0.46851879,0,0,0.47280792,230.76992,411.39819)"
       d="m 1017.1429,223.79076 -150.00002,259.80762 -300,0 -150,-259.80762 150,-259.807625 300,0 z"
       inkscape:randomized="2.77556e-017"
       inkscape:rounded="0"
       inkscape:flatsided="true"
       sodipodi:arg2="0.52359878"
       sodipodi:arg1="0"
       sodipodi:r2="259.80762"
       sodipodi:r1="300"
       sodipodi:cy="223.79076"
       sodipodi:cx="717.14288"
       sodipodi:sides="6"
       id="path3233"
       style="opacity:1;fill:#55ddff;fill-opacity:1;stroke:#000000;stroke-width:5;stroke-miterlimit:4;stroke-dasharray:none;stroke-opacity:1"
       sodipodi:type="star" />
    <path
       inkscape:connector-curvature="0"
       id="path3235"
       d="m 496.45912,394.3911 -70.25,122.8125 70.25,122.84374 67.43755,0 0,-245.65624 -67.43755,0 z"
       style="opacity:1;fill:#ffd42a;fill-opacity:1;stroke:#000000;stroke-width:2.35329223;stroke-miterlimit:4;stroke-dasharray:none;stroke-opacity:1" />
    <path
       sodipodi:type="star"
       style="opacity:1;fill:#55ddff;fill-opacity:1;stroke:#000000;stroke-width:5;stroke-miterlimit:4;stroke-dasharray:none;stroke-opacity:1"
       id="path3237"
       sodipodi:sides="6"
       sodipodi:cx="717.14288"
       sodipodi:cy="223.79076"
       sodipodi:r1="300"
       sodipodi:r2="259.80762"
       sodipodi:arg1="0"
       sodipodi:arg2="0.52359878"
       inkscape:flatsided="true"
       inkscape:rounded="0"
       inkscape:randomized="2.77556e-017"
       d="m 1017.1429,223.79076 -150.00002,259.80762 -300,0 -150,-259.80762 150,-259.807625 300,0 z"
       transform="matrix(0.46851879,0,0,0.47280792,-145.76208,691.39819)" />
    <path
       style="opacity:1;fill:#6c5d53;fill-opacity:1;stroke:#000000;stroke-width:2.35329223;stroke-miterlimit:4;stroke-dasharray:none;stroke-opacity:1"
       d="m 119.92712,674.3911 -70.250004,122.8125 70.250004,122.84377 67.4375,0 0,-245.65627 -67.4375,0 z"
       id="path3239"
       inkscape:connector-curvature="0" />
    <path
       sodipodi:type="star"
       style="opacity:1;fill:#55ddff;fill-opacity:1;stroke:#000000;stroke-width:5;stroke-miterlimit:4;stroke-dasharray:none;stroke-opacity:1"
       id="path3241"
       sodipodi:sides="6"
       sodipodi:cx="717.14288"
       sodipodi:cy="223.79076"
       sodipodi:r1="300"
       sodipodi:r2="259.80762"
       sodipodi:arg1="0"
       sodipodi:arg2="0.52359878"
       inkscape:flatsided="true"
       inkscape:rounded="0"
       inkscape:randomized="2.77556e-017"
       d="m 1017.1429,223.79076 -150.00002,259.80762 -300,0 -150,-259.80762 150,-259.807625 300,0 z"
       transform="matrix(0.46851879,0,0,0.47280792,230.76992,691.39819)" />
    <path
       style="opacity:1;fill:#d40000;fill-opacity:1;stroke:#000000;stroke-width:2.35329223;stroke-miterlimit:4;stroke-dasharray:none;stroke-opacity:1"
       d="m 496.45912,674.3911 -70.25,122.8125 70.25,122.84377 67.43755,0 0,-245.65627 -67.43755,0 z"
       id="path3243"
       inkscape:connector-curvature="0" />
    <path
       transform="matrix(0.46851879,0,0,0.47280792,-162.90494,1185.6839)"
       d="m 1017.1429,223.79076 -150.00002,259.80762 -300,0 -150,-259.80762 150,-259.807625 300,0 z"
       inkscape:randomized="2.77556e-017"
       inkscape:rounded="0"
       inkscape:flatsided="true"
       sodipodi:arg2="0.52359878"
       sodipodi:arg1="0"
       sodipodi:r2="259.80762"
       sodipodi:r1="300"
       sodipodi:cy="223.79076"
       sodipodi:cx="717.14288"
       sodipodi:sides="6"
       id="path3245"
       style="opacity:1;fill:#ffd42a;fill-opacity:1;stroke:#000000;stroke-width:5;stroke-miterlimit:4;stroke-dasharray:none;stroke-opacity:1"
       sodipodi:type="star" />
    <path
       inkscape:connector-curvature="0"
       id="path3247"
       d="m 102.78426,1168.6768 -70.250001,122.8125 70.250001,122.8438 67.4375,0 0,-245.6563 -67.4375,0 z"
       style="opacity:1;fill:#55ddff;fill-opacity:1;stroke:#000000;stroke-width:2.35329223;stroke-miterlimit:4;stroke-dasharray:none;stroke-opacity:1" />
    <path
       transform="matrix(0.46851879,0,0,0.47280792,213.62706,1185.6839)"
       d="m 1017.1429,223.79076 -150.00002,259.80762 -300,0 -150,-259.80762 150,-259.807625 300,0 z"
       inkscape:randomized="2.77556e-017"
       inkscape:rounded="0"
       inkscape:flatsided="true"
       sodipodi:arg2="0.52359878"
       sodipodi:arg1="0"
       sodipodi:r2="259.80762"
       sodipodi:r1="300"
       sodipodi:cy="223.79076"
       sodipodi:cx="717.14288"
       sodipodi:sides="6"
       id="path3249"
       style="opacity:1;fill:#ffd42a;fill-opacity:1;stroke:#000000;stroke-width:5;stroke-miterlimit:4;stroke-dasharray:none;stroke-opacity:1"
       sodipodi:type="star" />
    <path
       inkscape:connector-curvature="0"
       id="path3251"
       d="m 479.31626,1168.6768 -70.25,122.8125 70.25,122.8438 67.43755,0 0,-245.6563 -67.43755,0 z"
       style="opacity:1;fill:#00ff66;fill-opacity:1;stroke:#000000;stroke-width:2.35329223;stroke-miterlimit:4;stroke-dasharray:none;stroke-opacity:1" />
    <path
       sodipodi:type="star"
       style="opacity:1;fill:#ffd42a;fill-opacity:1;stroke:#000000;stroke-width:5;stroke-miterlimit:4;stroke-dasharray:none;stroke-opacity:1"
       id="path3253"
       sodipodi:sides="6"
       sodipodi:cx="717.14288"
       sodipodi:cy="223.79076"
       sodipodi:r1="300"
       sodipodi:r2="259.80762"
       sodipodi:arg1="0"
       sodipodi:arg2="0.52359878"
       inkscape:flatsided="true"
       inkscape:rounded="0"
       inkscape:randomized="2.77556e-017"
       d="m 1017.1429,223.79076 -150.00002,259.80762 -300,0 -150,-259.80762 150,-259.807625 300,0 z"
       transform="matrix(0.46851879,0,0,0.47280792,-162.90494,1465.6839)" />
    <path
       style="opacity:1;fill:#ff6600;fill-opacity:1;stroke:#000000;stroke-width:2.35329223;stroke-miterlimit:4;stroke-dasharray:none;stroke-opacity:1"
       d="m 102.78426,1448.6768 -70.250001,122.8125 70.250001,122.8438 67.4375,0 0,-245.6563 -67.4375,0 z"
       id="path3255"
       inkscape:connector-curvature="0" />
    <path
       sodipodi:type="star"
       style="opacity:1;fill:#ffd42a;fill-opacity:1;stroke:#000000;stroke-width:5;stroke-miterlimit:4;stroke-dasharray:none;stroke-opacity:1"
       id="path3257"
       sodipodi:sides="6"
       sodipodi:cx="717.14288"
       sodipodi:cy="223.79076"
       sodipodi:r1="300"
       sodipodi:r2="259.80762"
       sodipodi:arg1="0"
       sodipodi:arg2="0.52359878"
       inkscape:flatsided="true"
       inkscape:rounded="0"
       inkscape:randomized="2.77556e-017"
       d="m 1017.1429,223.79076 -150.00002,259.80762 -300,0 -150,-259.80762 150,-259.807625 300,0 z"
       transform="matrix(0.46851879,0,0,0.47280792,213.62706,1465.6839)" />
    <path
       style="opacity:1;fill:#ffd42a;fill-opacity:1;stroke:#000000;stroke-width:2.35329223;stroke-miterlimit:4;stroke-dasharray:none;stroke-opacity:1"
       d="m 479.31626,1448.6768 -70.25,122.8125 70.25,122.8438 67.43755,0 0,-245.6563 -67.43755,0 z"
       id="path3259"
       inkscape:connector-curvature="0" />
    <path
       transform="matrix(0.46851879,0,0,0.47280792,-162.90494,1745.6839)"
       d="m 1017.1429,223.79076 -150.00002,259.80762 -300,0 -150,-259.80762 150,-259.807625 300,0 z"
       inkscape:randomized="2.77556e-017"
       inkscape:rounded="0"
       inkscape:flatsided="true"
       sodipodi:arg2="0.52359878"
       sodipodi:arg1="0"
       sodipodi:r2="259.80762"
       sodipodi:r1="300"
       sodipodi:cy="223.79076"
       sodipodi:cx="717.14288"
       sodipodi:sides="6"
       id="path3261"
       style="opacity:1;fill:#ffd42a;fill-opacity:1;stroke:#000000;stroke-width:5;stroke-miterlimit:4;stroke-dasharray:none;stroke-opacity:1"
       sodipodi:type="star" />
    <path
       inkscape:connector-curvature="0"
       id="path3263"
       d="m 102.78426,1728.6768 -70.250001,122.8125 70.250001,122.8438 67.4375,0 0,-245.6563 -67.4375,0 z"
       style="opacity:1;fill:#6c5d53;fill-opacity:1;stroke:#000000;stroke-width:2.35329223;stroke-miterlimit:4;stroke-dasharray:none;stroke-opacity:1" />
    <path
       transform="matrix(0.46851879,0,0,0.47280792,213.62706,1745.6839)"
       d="m 1017.1429,223.79076 -150.00002,259.80762 -300,0 -150,-259.80762 150,-259.807625 300,0 z"
       inkscape:randomized="2.77556e-017"
       inkscape:rounded="0"
       inkscape:flatsided="true"
       sodipodi:arg2="0.52359878"
       sodipodi:arg1="0"
       sodipodi:r2="259.80762"
       sodipodi:r1="300"
       sodipodi:cy="223.79076"
       sodipodi:cx="717.14288"
       sodipodi:sides="6"
       id="path3265"
       style="opacity:1;fill:#ffd42a;fill-opacity:1;stroke:#000000;stroke-width:5;stroke-miterlimit:4;stroke-dasharray:none;stroke-opacity:1"
       sodipodi:type="star" />
    <path
       inkscape:connector-curvature="0"
       id="path3267"
       d="m 479.31626,1728.6768 -70.25,122.8125 70.25,122.8438 67.43755,0 0,-245.6563 -67.43755,0 z"
       style="opacity:1;fill:#d40000;fill-opacity:1;stroke:#000000;stroke-width:2.35329223;stroke-miterlimit:4;stroke-dasharray:none;stroke-opacity:1" />
    <path
       sodipodi:type="star"
       style="opacity:1;fill:#ffffff;fill-opacity:1;stroke:#000000;stroke-width:5;stroke-miterlimit:4;stroke-dasharray:none;stroke-opacity:1"
       id="path3221-5"
       sodipodi:sides="6"
       sodipodi:cx="717.14288"
       sodipodi:cy="223.79076"
       sodipodi:r1="300"
       sodipodi:r2="259.80762"
       sodipodi:arg1="0"
       sodipodi:arg2="0.52359878"
       inkscape:flatsided="true"
       inkscape:rounded="0"
       inkscape:randomized="2.77556e-017"
       d="m 1017.1429,223.79076 -150.00002,259.80762 -300,0 -150,-259.80762 150,-259.807625 300,0 z"
       transform="matrix(0.46851879,0,0,0.47280792,2124.7332,407.3091)" />
  </g>
</svg>
