<?xml version="1.0" encoding="UTF-8" standalone="no"?>
<!-- Created with Inkscape (http://www.inkscape.org/) -->

<svg
   xmlns:dc="http://purl.org/dc/elements/1.1/"
   xmlns:cc="http://creativecommons.org/ns#"
   xmlns:rdf="http://www.w3.org/1999/02/22-rdf-syntax-ns#"
   xmlns:svg="http://www.w3.org/2000/svg"
   xmlns="http://www.w3.org/2000/svg"
   xmlns:sodipodi="http://sodipodi.sourceforge.net/DTD/sodipodi-0.dtd"
   xmlns:inkscape="http://www.inkscape.org/namespaces/inkscape"
   width="210mm"
   height="297mm"
   id="svg2"
   version="1.1"
   inkscape:version="0.48.4 r9939"
   sodipodi:docname="Neues Dokument 1">
  <defs
     id="defs4" />
  <sodipodi:namedview
     id="base"
     pagecolor="#ffffff"
     bordercolor="#666666"
     borderopacity="1.0"
     inkscape:pageopacity="0.0"
     inkscape:pageshadow="2"
     inkscape:zoom="0.24748737"
     inkscape:cx="-1980.4123"
     inkscape:cy="662.80596"
     inkscape:document-units="px"
     inkscape:current-layer="layer1"
     showgrid="false"
     inkscape:window-width="1920"
     inkscape:window-height="1017"
     inkscape:window-x="-8"
     inkscape:window-y="-8"
     inkscape:window-maximized="1" />
  <metadata
     id="metadata7">
    <rdf:RDF>
      <cc:Work
         rdf:about="">
        <dc:format>image/svg+xml</dc:format>
        <dc:type
           rdf:resource="http://purl.org/dc/dcmitype/StillImage" />
        <dc:title></dc:title>
      </cc:Work>
    </rdf:RDF>
  </metadata>
  <g
     inkscape:label="Ebene 1"
     inkscape:groupmode="layer"
     id="layer1">
    <path
       sodipodi:type="star"
       style="opacity:1;fill:#ff6600;fill-opacity:1;stroke:#000000;stroke-width:5;stroke-miterlimit:4;stroke-opacity:1;stroke-dasharray:none"
       id="path2987"
       sodipodi:sides="6"
       sodipodi:cx="717.14288"
       sodipodi:cy="223.79076"
       sodipodi:r1="300"
       sodipodi:r2="259.80762"
       sodipodi:arg1="0"
       sodipodi:arg2="0.52359878"
       inkscape:flatsided="true"
       inkscape:rounded="0"
       inkscape:randomized="2.77556e-017"
       d="m 1017.1429,223.79076 -150.00002,259.80762 -300,0 -150,-259.80762 150,-259.807625 300,0 z"
       transform="matrix(0.46851879,0,0,0.47280792,-158.81265,46.02033)" />
    <path
       style="opacity:1;fill:#55ddff;fill-opacity:1;stroke:#000000;stroke-width:2.35329223000000010;stroke-miterlimit:4;stroke-opacity:1;stroke-dasharray:none"
       d="m 106.87663,29.01324 -70.250001,122.8125 70.250001,122.84374 67.4375,0 0,-245.65624 -67.4375,0 z"
       id="path2987-1"
       inkscape:connector-curvature="0" />
    <path
       sodipodi:type="star"
       style="opacity:1;fill:#ff6600;fill-opacity:1;stroke:#000000;stroke-width:5;stroke-miterlimit:4;stroke-opacity:1;stroke-dasharray:none"
       id="path2987-0"
       sodipodi:sides="6"
       sodipodi:cx="717.14288"
       sodipodi:cy="223.79076"
       sodipodi:r1="300"
       sodipodi:r2="259.80762"
       sodipodi:arg1="0"
       sodipodi:arg2="0.52359878"
       inkscape:flatsided="true"
       inkscape:rounded="0"
       inkscape:randomized="2.77556e-017"
       d="m 1017.1429,223.79076 -150.00002,259.80762 -300,0 -150,-259.80762 150,-259.807625 300,0 z"
       transform="matrix(0.46851879,0,0,0.47280792,217.71937,46.02033)" />
    <path
       style="opacity:1;fill:#00ff66;fill-opacity:1;stroke:#000000;stroke-width:2.35329223000000010;stroke-miterlimit:4;stroke-opacity:1;stroke-dasharray:none"
       d="m 483.40864,29.01324 -70.25,122.8125 70.25,122.84374 67.43751,0 0,-245.65624 -67.43751,0 z"
       id="path2987-1-9"
       inkscape:connector-curvature="0" />
    <path
       transform="matrix(0.46851879,0,0,0.47280792,-158.81265,326.02033)"
       d="m 1017.1429,223.79076 -150.00002,259.80762 -300,0 -150,-259.80762 150,-259.807625 300,0 z"
       inkscape:randomized="2.77556e-017"
       inkscape:rounded="0"
       inkscape:flatsided="true"
       sodipodi:arg2="0.52359878"
       sodipodi:arg1="0"
       sodipodi:r2="259.80762"
       sodipodi:r1="300"
       sodipodi:cy="223.79076"
       sodipodi:cx="717.14288"
       sodipodi:sides="6"
       id="path3046"
       style="opacity:1;fill:#ff6600;fill-opacity:1;stroke:#000000;stroke-width:5;stroke-miterlimit:4;stroke-opacity:1;stroke-dasharray:none"
       sodipodi:type="star" />
    <path
       inkscape:connector-curvature="0"
       id="path3048"
       d="m 106.87663,309.01324 -70.250001,122.8125 70.250001,122.84374 67.4375,0 0,-245.65624 -67.4375,0 z"
       style="opacity:1;fill:#ff6600;fill-opacity:1;stroke:#000000;stroke-width:2.35329223000000010;stroke-miterlimit:4;stroke-opacity:1;stroke-dasharray:none" />
    <path
       transform="matrix(0.46851879,0,0,0.47280792,217.71937,326.02033)"
       d="m 1017.1429,223.79076 -150.00002,259.80762 -300,0 -150,-259.80762 150,-259.807625 300,0 z"
       inkscape:randomized="2.77556e-017"
       inkscape:rounded="0"
       inkscape:flatsided="true"
       sodipodi:arg2="0.52359878"
       sodipodi:arg1="0"
       sodipodi:r2="259.80762"
       sodipodi:r1="300"
       sodipodi:cy="223.79076"
       sodipodi:cx="717.14288"
       sodipodi:sides="6"
       id="path3050"
       style="opacity:1;fill:#ff6600;fill-opacity:1;stroke:#000000;stroke-width:5;stroke-miterlimit:4;stroke-opacity:1;stroke-dasharray:none"
       sodipodi:type="star" />
    <path
       inkscape:connector-curvature="0"
       id="path3052"
       d="m 483.40864,309.01324 -70.25,122.8125 70.25,122.84374 67.43751,0 0,-245.65624 -67.43751,0 z"
       style="opacity:1;fill:#ffd42a;fill-opacity:1;stroke:#000000;stroke-width:2.35329223000000010;stroke-miterlimit:4;stroke-opacity:1;stroke-dasharray:none" />
    <path
       sodipodi:type="star"
       style="opacity:1;fill:#ff6600;fill-opacity:1;stroke:#000000;stroke-width:5;stroke-miterlimit:4;stroke-opacity:1;stroke-dasharray:none"
       id="path3054"
       sodipodi:sides="6"
       sodipodi:cx="717.14288"
       sodipodi:cy="223.79076"
       sodipodi:r1="300"
       sodipodi:r2="259.80762"
       sodipodi:arg1="0"
       sodipodi:arg2="0.52359878"
       inkscape:flatsided="true"
       inkscape:rounded="0"
       inkscape:randomized="2.77556e-017"
       d="m 1017.1429,223.79076 -150.00002,259.80762 -300,0 -150,-259.80762 150,-259.807625 300,0 z"
       transform="matrix(0.46851879,0,0,0.47280792,-158.81265,606.02033)" />
    <path
       style="opacity:1;fill:#6c5d53;fill-opacity:1;stroke:#000000;stroke-width:2.35329223000000010;stroke-miterlimit:4;stroke-opacity:1;stroke-dasharray:none"
       d="m 106.87663,589.01324 -70.250001,122.8125 70.250001,122.84374 67.4375,0 0,-245.65624 -67.4375,0 z"
       id="path3056"
       inkscape:connector-curvature="0" />
    <path
       sodipodi:type="star"
       style="opacity:1;fill:#ff6600;fill-opacity:1;stroke:#000000;stroke-width:5;stroke-miterlimit:4;stroke-opacity:1;stroke-dasharray:none"
       id="path3058"
       sodipodi:sides="6"
       sodipodi:cx="717.14288"
       sodipodi:cy="223.79076"
       sodipodi:r1="300"
       sodipodi:r2="259.80762"
       sodipodi:arg1="0"
       sodipodi:arg2="0.52359878"
       inkscape:flatsided="true"
       inkscape:rounded="0"
       inkscape:randomized="2.77556e-017"
       d="m 1017.1429,223.79076 -150.00002,259.80762 -300,0 -150,-259.80762 150,-259.807625 300,0 z"
       transform="matrix(0.46851879,0,0,0.47280792,217.71937,606.02033)" />
    <path
       style="opacity:1;fill:#d40000;fill-opacity:1;stroke:#000000;stroke-width:2.35329223000000010;stroke-miterlimit:4;stroke-opacity:1;stroke-dasharray:none"
       d="m 483.40864,589.01324 -70.25,122.8125 70.25,122.84374 67.43751,0 0,-245.65624 -67.43751,0 z"
       id="path3060"
       inkscape:connector-curvature="0" />
    <path
       transform="matrix(0.46851879,0,0,0.47280792,-158.81265,906.02033)"
       d="m 1017.1429,223.79076 -150.00002,259.80762 -300,0 -150,-259.80762 150,-259.807625 300,0 z"
       inkscape:randomized="2.77556e-017"
       inkscape:rounded="0"
       inkscape:flatsided="true"
       sodipodi:arg2="0.52359878"
       sodipodi:arg1="0"
       sodipodi:r2="259.80762"
       sodipodi:r1="300"
       sodipodi:cy="223.79076"
       sodipodi:cx="717.14288"
       sodipodi:sides="6"
       id="path3062"
       style="opacity:1;fill:#d40000;fill-opacity:1;stroke:#000000;stroke-width:5;stroke-miterlimit:4;stroke-opacity:1;stroke-dasharray:none"
       sodipodi:type="star" />
    <path
       inkscape:connector-curvature="0"
       id="path3064"
       d="m 106.87663,889.01324 -70.250001,122.81246 70.250001,122.8438 67.4375,0 0,-245.65626 -67.4375,0 z"
       style="opacity:1;fill:#55ddff;fill-opacity:1;stroke:#000000;stroke-width:2.35329223000000010;stroke-miterlimit:4;stroke-opacity:1;stroke-dasharray:none" />
    <path
       transform="matrix(0.46851879,0,0,0.47280792,217.71937,906.02033)"
       d="m 1017.1429,223.79076 -150.00002,259.80762 -300,0 -150,-259.80762 150,-259.807625 300,0 z"
       inkscape:randomized="2.77556e-017"
       inkscape:rounded="0"
       inkscape:flatsided="true"
       sodipodi:arg2="0.52359878"
       sodipodi:arg1="0"
       sodipodi:r2="259.80762"
       sodipodi:r1="300"
       sodipodi:cy="223.79076"
       sodipodi:cx="717.14288"
       sodipodi:sides="6"
       id="path3066"
       style="opacity:1;fill:#d40000;fill-opacity:1;stroke:#000000;stroke-width:5;stroke-miterlimit:4;stroke-opacity:1;stroke-dasharray:none"
       sodipodi:type="star" />
    <path
       inkscape:connector-curvature="0"
       id="path3068"
       d="m 483.40864,889.01324 -70.25,122.81246 70.25,122.8438 67.43751,0 0,-245.65626 -67.43751,0 z"
       style="opacity:1;fill:#00ff66;fill-opacity:1;stroke:#000000;stroke-width:2.35329223000000010;stroke-miterlimit:4;stroke-opacity:1;stroke-dasharray:none" />
    <path
       sodipodi:type="star"
       style="opacity:1;fill:#d40000;fill-opacity:1;stroke:#000000;stroke-width:5;stroke-miterlimit:4;stroke-opacity:1;stroke-dasharray:none"
       id="path3070"
       sodipodi:sides="6"
       sodipodi:cx="717.14288"
       sodipodi:cy="223.79076"
       sodipodi:r1="300"
       sodipodi:r2="259.80762"
       sodipodi:arg1="0"
       sodipodi:arg2="0.52359878"
       inkscape:flatsided="true"
       inkscape:rounded="0"
       inkscape:randomized="2.77556e-017"
       d="m 1017.1429,223.79076 -150.00002,259.80762 -300,0 -150,-259.80762 150,-259.807625 300,0 z"
       transform="matrix(0.46851879,0,0,0.47280792,-158.81265,1186.0203)" />
    <path
       style="opacity:1;fill:#ff6600;fill-opacity:1;stroke:#000000;stroke-width:2.35329223000000010;stroke-miterlimit:4;stroke-opacity:1;stroke-dasharray:none"
       d="m 106.87663,1169.0132 -70.250001,122.8125 70.250001,122.8438 67.4375,0 0,-245.6563 -67.4375,0 z"
       id="path3072"
       inkscape:connector-curvature="0" />
    <path
       sodipodi:type="star"
       style="opacity:1;fill:#d40000;fill-opacity:1;stroke:#000000;stroke-width:5;stroke-miterlimit:4;stroke-opacity:1;stroke-dasharray:none"
       id="path3074"
       sodipodi:sides="6"
       sodipodi:cx="717.14288"
       sodipodi:cy="223.79076"
       sodipodi:r1="300"
       sodipodi:r2="259.80762"
       sodipodi:arg1="0"
       sodipodi:arg2="0.52359878"
       inkscape:flatsided="true"
       inkscape:rounded="0"
       inkscape:randomized="2.77556e-017"
       d="m 1017.1429,223.79076 -150.00002,259.80762 -300,0 -150,-259.80762 150,-259.807625 300,0 z"
       transform="matrix(0.46851879,0,0,0.47280792,217.71937,1186.0203)" />
    <path
       style="opacity:1;fill:#ffd42a;fill-opacity:1;stroke:#000000;stroke-width:2.35329223000000010;stroke-miterlimit:4;stroke-opacity:1;stroke-dasharray:none"
       d="m 483.40864,1169.0132 -70.25,122.8125 70.25,122.8438 67.43751,0 0,-245.6563 -67.43751,0 z"
       id="path3076"
       inkscape:connector-curvature="0" />
    <path
       transform="matrix(0.46851879,0,0,0.47280792,-158.81265,1466.0203)"
       d="m 1017.1429,223.79076 -150.00002,259.80762 -300,0 -150,-259.80762 150,-259.807625 300,0 z"
       inkscape:randomized="2.77556e-017"
       inkscape:rounded="0"
       inkscape:flatsided="true"
       sodipodi:arg2="0.52359878"
       sodipodi:arg1="0"
       sodipodi:r2="259.80762"
       sodipodi:r1="300"
       sodipodi:cy="223.79076"
       sodipodi:cx="717.14288"
       sodipodi:sides="6"
       id="path3078"
       style="opacity:1;fill:#d40000;fill-opacity:1;stroke:#000000;stroke-width:5;stroke-miterlimit:4;stroke-opacity:1;stroke-dasharray:none"
       sodipodi:type="star" />
    <path
       inkscape:connector-curvature="0"
       id="path3080"
       d="m 106.87663,1449.0132 -70.250001,122.8125 70.250001,122.8438 67.4375,0 0,-245.6563 -67.4375,0 z"
       style="opacity:1;fill:#6c5d53;fill-opacity:1;stroke:#000000;stroke-width:2.35329223000000010;stroke-miterlimit:4;stroke-opacity:1;stroke-dasharray:none" />
    <path
       transform="matrix(0.46851879,0,0,0.47280792,217.71937,1466.0203)"
       d="m 1017.1429,223.79076 -150.00002,259.80762 -300,0 -150,-259.80762 150,-259.807625 300,0 z"
       inkscape:randomized="2.77556e-017"
       inkscape:rounded="0"
       inkscape:flatsided="true"
       sodipodi:arg2="0.52359878"
       sodipodi:arg1="0"
       sodipodi:r2="259.80762"
       sodipodi:r1="300"
       sodipodi:cy="223.79076"
       sodipodi:cx="717.14288"
       sodipodi:sides="6"
       id="path3082"
       style="opacity:1;fill:#d40000;fill-opacity:1;stroke:#000000;stroke-width:5;stroke-miterlimit:4;stroke-opacity:1;stroke-dasharray:none"
       sodipodi:type="star" />
    <path
       inkscape:connector-curvature="0"
       id="path3084"
       d="m 483.40864,1449.0132 -70.25,122.8125 70.25,122.8438 67.43751,0 0,-245.6563 -67.43751,0 z"
       style="opacity:1;fill:#d40000;fill-opacity:1;stroke:#000000;stroke-width:2.35329223000000010;stroke-miterlimit:4;stroke-opacity:1;stroke-dasharray:none" />
    <path
       transform="matrix(0.46851879,0,0,0.47280792,-918.81265,46.02033)"
       d="m 1017.1429,223.79076 -150.00002,259.80762 -300,0 -150,-259.80762 150,-259.807625 300,0 z"
       inkscape:randomized="2.77556e-017"
       inkscape:rounded="0"
       inkscape:flatsided="true"
       sodipodi:arg2="0.52359878"
       sodipodi:arg1="0"
       sodipodi:r2="259.80762"
       sodipodi:r1="300"
       sodipodi:cy="223.79076"
       sodipodi:cx="717.14288"
       sodipodi:sides="6"
       id="path3173"
       style="opacity:1;fill:#00ff66;fill-opacity:1;stroke:#000000;stroke-width:5;stroke-miterlimit:4;stroke-opacity:1;stroke-dasharray:none"
       sodipodi:type="star" />
    <path
       inkscape:connector-curvature="0"
       id="path3175"
       d="m -653.12337,29.01324 -70.25,122.8125 70.25,122.84374 67.4375,0 0,-245.65624 -67.4375,0 z"
       style="opacity:1;fill:#55ddff;fill-opacity:1;stroke:#000000;stroke-width:2.35329223000000010;stroke-miterlimit:4;stroke-opacity:1;stroke-dasharray:none" />
    <path
       transform="matrix(0.46851879,0,0,0.47280792,-542.28063,46.02033)"
       d="m 1017.1429,223.79076 -150.00002,259.80762 -300,0 -150,-259.80762 150,-259.807625 300,0 z"
       inkscape:randomized="2.77556e-017"
       inkscape:rounded="0"
       inkscape:flatsided="true"
       sodipodi:arg2="0.52359878"
       sodipodi:arg1="0"
       sodipodi:r2="259.80762"
       sodipodi:r1="300"
       sodipodi:cy="223.79076"
       sodipodi:cx="717.14288"
       sodipodi:sides="6"
       id="path3177"
       style="opacity:1;fill:#00ff66;fill-opacity:1;stroke:#000000;stroke-width:5;stroke-miterlimit:4;stroke-opacity:1;stroke-dasharray:none"
       sodipodi:type="star" />
    <path
       inkscape:connector-curvature="0"
       id="path3179"
       d="m -276.59136,29.01324 -70.25,122.8125 70.25,122.84374 67.43751,0 0,-245.65624 -67.43751,0 z"
       style="opacity:1;fill:#00ff66;fill-opacity:1;stroke:#000000;stroke-width:2.35329223000000010;stroke-miterlimit:4;stroke-opacity:1;stroke-dasharray:none" />
    <path
       sodipodi:type="star"
       style="opacity:1;fill:#00ff66;fill-opacity:1;stroke:#000000;stroke-width:5;stroke-miterlimit:4;stroke-opacity:1;stroke-dasharray:none"
       id="path3181"
       sodipodi:sides="6"
       sodipodi:cx="717.14288"
       sodipodi:cy="223.79076"
       sodipodi:r1="300"
       sodipodi:r2="259.80762"
       sodipodi:arg1="0"
       sodipodi:arg2="0.52359878"
       inkscape:flatsided="true"
       inkscape:rounded="0"
       inkscape:randomized="2.77556e-017"
       d="m 1017.1429,223.79076 -150.00002,259.80762 -300,0 -150,-259.80762 150,-259.807625 300,0 z"
       transform="matrix(0.46851879,0,0,0.47280792,-918.81265,326.02033)" />
    <path
       style="opacity:1;fill:#ff6600;fill-opacity:1;stroke:#000000;stroke-width:2.35329223000000010;stroke-miterlimit:4;stroke-opacity:1;stroke-dasharray:none"
       d="m -653.12337,309.01324 -70.25,122.8125 70.25,122.84374 67.4375,0 0,-245.65624 -67.4375,0 z"
       id="path3183"
       inkscape:connector-curvature="0" />
    <path
       sodipodi:type="star"
       style="opacity:1;fill:#00ff66;fill-opacity:1;stroke:#000000;stroke-width:5;stroke-miterlimit:4;stroke-opacity:1;stroke-dasharray:none"
       id="path3185"
       sodipodi:sides="6"
       sodipodi:cx="717.14288"
       sodipodi:cy="223.79076"
       sodipodi:r1="300"
       sodipodi:r2="259.80762"
       sodipodi:arg1="0"
       sodipodi:arg2="0.52359878"
       inkscape:flatsided="true"
       inkscape:rounded="0"
       inkscape:randomized="2.77556e-017"
       d="m 1017.1429,223.79076 -150.00002,259.80762 -300,0 -150,-259.80762 150,-259.807625 300,0 z"
       transform="matrix(0.46851879,0,0,0.47280792,-542.28063,326.02033)" />
    <path
       style="opacity:1;fill:#ffd42a;fill-opacity:1;stroke:#000000;stroke-width:2.35329223000000010;stroke-miterlimit:4;stroke-opacity:1;stroke-dasharray:none"
       d="m -276.59136,309.01324 -70.25,122.8125 70.25,122.84374 67.43751,0 0,-245.65624 -67.43751,0 z"
       id="path3187"
       inkscape:connector-curvature="0" />
    <path
       transform="matrix(0.46851879,0,0,0.47280792,-918.81265,606.02033)"
       d="m 1017.1429,223.79076 -150.00002,259.80762 -300,0 -150,-259.80762 150,-259.807625 300,0 z"
       inkscape:randomized="2.77556e-017"
       inkscape:rounded="0"
       inkscape:flatsided="true"
       sodipodi:arg2="0.52359878"
       sodipodi:arg1="0"
       sodipodi:r2="259.80762"
       sodipodi:r1="300"
       sodipodi:cy="223.79076"
       sodipodi:cx="717.14288"
       sodipodi:sides="6"
       id="path3189"
       style="opacity:1;fill:#00ff66;fill-opacity:1;stroke:#000000;stroke-width:5;stroke-miterlimit:4;stroke-opacity:1;stroke-dasharray:none"
       sodipodi:type="star" />
    <path
       inkscape:connector-curvature="0"
       id="path3191"
       d="m -653.12337,589.01324 -70.25,122.8125 70.25,122.84374 67.4375,0 0,-245.65624 -67.4375,0 z"
       style="opacity:1;fill:#6c5d53;fill-opacity:1;stroke:#000000;stroke-width:2.35329223000000010;stroke-miterlimit:4;stroke-opacity:1;stroke-dasharray:none" />
    <path
       transform="matrix(0.46851879,0,0,0.47280792,-542.28063,606.02033)"
       d="m 1017.1429,223.79076 -150.00002,259.80762 -300,0 -150,-259.80762 150,-259.807625 300,0 z"
       inkscape:randomized="2.77556e-017"
       inkscape:rounded="0"
       inkscape:flatsided="true"
       sodipodi:arg2="0.52359878"
       sodipodi:arg1="0"
       sodipodi:r2="259.80762"
       sodipodi:r1="300"
       sodipodi:cy="223.79076"
       sodipodi:cx="717.14288"
       sodipodi:sides="6"
       id="path3193"
       style="opacity:1;fill:#00ff66;fill-opacity:1;stroke:#000000;stroke-width:5;stroke-miterlimit:4;stroke-opacity:1;stroke-dasharray:none"
       sodipodi:type="star" />
    <path
       inkscape:connector-curvature="0"
       id="path3195"
       d="m -276.59136,589.01324 -70.25,122.8125 70.25,122.84374 67.43751,0 0,-245.65624 -67.43751,0 z"
       style="opacity:1;fill:#d40000;fill-opacity:1;stroke:#000000;stroke-width:2.35329223000000010;stroke-miterlimit:4;stroke-opacity:1;stroke-dasharray:none" />
    <path
       sodipodi:type="star"
       style="opacity:1;fill:#6c5d53;fill-opacity:1;stroke:#000000;stroke-width:5;stroke-miterlimit:4;stroke-opacity:1;stroke-dasharray:none"
       id="path3197"
       sodipodi:sides="6"
       sodipodi:cx="717.14288"
       sodipodi:cy="223.79076"
       sodipodi:r1="300"
       sodipodi:r2="259.80762"
       sodipodi:arg1="0"
       sodipodi:arg2="0.52359878"
       inkscape:flatsided="true"
       inkscape:rounded="0"
       inkscape:randomized="2.77556e-017"
       d="m 1017.1429,223.79076 -150.00002,259.80762 -300,0 -150,-259.80762 150,-259.807625 300,0 z"
       transform="matrix(0.46851879,0,0,0.47280792,-918.81265,906.02033)" />
    <path
       style="opacity:1;fill:#55ddff;fill-opacity:1;stroke:#000000;stroke-width:2.35329223000000010;stroke-miterlimit:4;stroke-opacity:1;stroke-dasharray:none"
       d="m -653.12337,889.01324 -70.25,122.81246 70.25,122.8438 67.4375,0 0,-245.65626 -67.4375,0 z"
       id="path3199"
       inkscape:connector-curvature="0" />
    <path
       sodipodi:type="star"
       style="opacity:1;fill:#6c5d53;fill-opacity:1;stroke:#000000;stroke-width:5;stroke-miterlimit:4;stroke-opacity:1;stroke-dasharray:none"
       id="path3201"
       sodipodi:sides="6"
       sodipodi:cx="717.14288"
       sodipodi:cy="223.79076"
       sodipodi:r1="300"
       sodipodi:r2="259.80762"
       sodipodi:arg1="0"
       sodipodi:arg2="0.52359878"
       inkscape:flatsided="true"
       inkscape:rounded="0"
       inkscape:randomized="2.77556e-017"
       d="m 1017.1429,223.79076 -150.00002,259.80762 -300,0 -150,-259.80762 150,-259.807625 300,0 z"
       transform="matrix(0.46851879,0,0,0.47280792,-542.28063,906.02033)" />
    <path
       style="opacity:1;fill:#00ff66;fill-opacity:1;stroke:#000000;stroke-width:2.35329223000000010;stroke-miterlimit:4;stroke-opacity:1;stroke-dasharray:none"
       d="m -276.59136,889.01324 -70.25,122.81246 70.25,122.8438 67.43751,0 0,-245.65626 -67.43751,0 z"
       id="path3203"
       inkscape:connector-curvature="0" />
    <path
       transform="matrix(0.46851879,0,0,0.47280792,-918.81265,1186.0203)"
       d="m 1017.1429,223.79076 -150.00002,259.80762 -300,0 -150,-259.80762 150,-259.807625 300,0 z"
       inkscape:randomized="2.77556e-017"
       inkscape:rounded="0"
       inkscape:flatsided="true"
       sodipodi:arg2="0.52359878"
       sodipodi:arg1="0"
       sodipodi:r2="259.80762"
       sodipodi:r1="300"
       sodipodi:cy="223.79076"
       sodipodi:cx="717.14288"
       sodipodi:sides="6"
       id="path3205"
       style="opacity:1;fill:#6c5d53;fill-opacity:1;stroke:#000000;stroke-width:5;stroke-miterlimit:4;stroke-opacity:1;stroke-dasharray:none"
       sodipodi:type="star" />
    <path
       inkscape:connector-curvature="0"
       id="path3207"
       d="m -653.12337,1169.0132 -70.25,122.8125 70.25,122.8438 67.4375,0 0,-245.6563 -67.4375,0 z"
       style="opacity:1;fill:#ff6600;fill-opacity:1;stroke:#000000;stroke-width:2.35329223000000010;stroke-miterlimit:4;stroke-opacity:1;stroke-dasharray:none" />
    <path
       transform="matrix(0.46851879,0,0,0.47280792,-542.28063,1186.0203)"
       d="m 1017.1429,223.79076 -150.00002,259.80762 -300,0 -150,-259.80762 150,-259.807625 300,0 z"
       inkscape:randomized="2.77556e-017"
       inkscape:rounded="0"
       inkscape:flatsided="true"
       sodipodi:arg2="0.52359878"
       sodipodi:arg1="0"
       sodipodi:r2="259.80762"
       sodipodi:r1="300"
       sodipodi:cy="223.79076"
       sodipodi:cx="717.14288"
       sodipodi:sides="6"
       id="path3209"
       style="opacity:1;fill:#6c5d53;fill-opacity:1;stroke:#000000;stroke-width:5;stroke-miterlimit:4;stroke-opacity:1;stroke-dasharray:none"
       sodipodi:type="star" />
    <path
       inkscape:connector-curvature="0"
       id="path3211"
       d="m -276.59136,1169.0132 -70.25,122.8125 70.25,122.8438 67.43751,0 0,-245.6563 -67.43751,0 z"
       style="opacity:1;fill:#ffd42a;fill-opacity:1;stroke:#000000;stroke-width:2.35329223000000010;stroke-miterlimit:4;stroke-opacity:1;stroke-dasharray:none" />
    <path
       sodipodi:type="star"
       style="opacity:1;fill:#6c5d53;fill-opacity:1;stroke:#000000;stroke-width:5;stroke-miterlimit:4;stroke-opacity:1;stroke-dasharray:none"
       id="path3213"
       sodipodi:sides="6"
       sodipodi:cx="717.14288"
       sodipodi:cy="223.79076"
       sodipodi:r1="300"
       sodipodi:r2="259.80762"
       sodipodi:arg1="0"
       sodipodi:arg2="0.52359878"
       inkscape:flatsided="true"
       inkscape:rounded="0"
       inkscape:randomized="2.77556e-017"
       d="m 1017.1429,223.79076 -150.00002,259.80762 -300,0 -150,-259.80762 150,-259.807625 300,0 z"
       transform="matrix(0.46851879,0,0,0.47280792,-918.81265,1466.0203)" />
    <path
       style="opacity:1;fill:#6c5d53;fill-opacity:1;stroke:#000000;stroke-width:2.35329223000000010;stroke-miterlimit:4;stroke-opacity:1;stroke-dasharray:none"
       d="m -653.12337,1449.0132 -70.25,122.8125 70.25,122.8438 67.4375,0 0,-245.6563 -67.4375,0 z"
       id="path3215"
       inkscape:connector-curvature="0" />
    <path
       sodipodi:type="star"
       style="opacity:1;fill:#6c5d53;fill-opacity:1;stroke:#000000;stroke-width:5;stroke-miterlimit:4;stroke-opacity:1;stroke-dasharray:none"
       id="path3217"
       sodipodi:sides="6"
       sodipodi:cx="717.14288"
       sodipodi:cy="223.79076"
       sodipodi:r1="300"
       sodipodi:r2="259.80762"
       sodipodi:arg1="0"
       sodipodi:arg2="0.52359878"
       inkscape:flatsided="true"
       inkscape:rounded="0"
       inkscape:randomized="2.77556e-017"
       d="m 1017.1429,223.79076 -150.00002,259.80762 -300,0 -150,-259.80762 150,-259.807625 300,0 z"
       transform="matrix(0.46851879,0,0,0.47280792,-542.28063,1466.0203)" />
    <path
       style="opacity:1;fill:#d40000;fill-opacity:1;stroke:#000000;stroke-width:2.35329223000000010;stroke-miterlimit:4;stroke-opacity:1;stroke-dasharray:none"
       d="m -276.59136,1449.0132 -70.25,122.8125 70.25,122.8438 67.43751,0 0,-245.6563 -67.43751,0 z"
       id="path3219"
       inkscape:connector-curvature="0" />
    <path
       sodipodi:type="star"
       style="opacity:1;fill:#55ddff;fill-opacity:1;stroke:#000000;stroke-width:5;stroke-miterlimit:4;stroke-opacity:1;stroke-dasharray:none"
       id="path3221"
       sodipodi:sides="6"
       sodipodi:cx="717.14288"
       sodipodi:cy="223.79076"
       sodipodi:r1="300"
       sodipodi:r2="259.80762"
       sodipodi:arg1="0"
       sodipodi:arg2="0.52359878"
       inkscape:flatsided="true"
       inkscape:rounded="0"
       inkscape:randomized="2.77556e-017"
       d="m 1017.1429,223.79076 -150.00002,259.80762 -300,0 -150,-259.80762 150,-259.807625 300,0 z"
       transform="matrix(0.46851879,0,0,0.47280792,-1658.8126,46.02033)" />
    <path
       style="opacity:1;fill:#55ddff;fill-opacity:1;stroke:#000000;stroke-width:2.35329223000000010;stroke-miterlimit:4;stroke-opacity:1;stroke-dasharray:none"
       d="m -1393.1234,29.01324 -70.25,122.8125 70.25,122.84374 67.4375,0 0,-245.65624 -67.4375,0 z"
       id="path3223"
       inkscape:connector-curvature="0" />
    <path
       sodipodi:type="star"
       style="opacity:1;fill:#55ddff;fill-opacity:1;stroke:#000000;stroke-width:5;stroke-miterlimit:4;stroke-opacity:1;stroke-dasharray:none"
       id="path3225"
       sodipodi:sides="6"
       sodipodi:cx="717.14288"
       sodipodi:cy="223.79076"
       sodipodi:r1="300"
       sodipodi:r2="259.80762"
       sodipodi:arg1="0"
       sodipodi:arg2="0.52359878"
       inkscape:flatsided="true"
       inkscape:rounded="0"
       inkscape:randomized="2.77556e-017"
       d="m 1017.1429,223.79076 -150.00002,259.80762 -300,0 -150,-259.80762 150,-259.807625 300,0 z"
       transform="matrix(0.46851879,0,0,0.47280792,-1282.2806,46.02033)" />
    <path
       style="opacity:1;fill:#00ff66;fill-opacity:1;stroke:#000000;stroke-width:2.35329223000000010;stroke-miterlimit:4;stroke-opacity:1;stroke-dasharray:none"
       d="m -1016.5914,29.01324 -70.25,122.8125 70.25,122.84374 67.43755,0 0,-245.65624 -67.43755,0 z"
       id="path3227"
       inkscape:connector-curvature="0" />
    <path
       transform="matrix(0.46851879,0,0,0.47280792,-1658.8126,326.02033)"
       d="m 1017.1429,223.79076 -150.00002,259.80762 -300,0 -150,-259.80762 150,-259.807625 300,0 z"
       inkscape:randomized="2.77556e-017"
       inkscape:rounded="0"
       inkscape:flatsided="true"
       sodipodi:arg2="0.52359878"
       sodipodi:arg1="0"
       sodipodi:r2="259.80762"
       sodipodi:r1="300"
       sodipodi:cy="223.79076"
       sodipodi:cx="717.14288"
       sodipodi:sides="6"
       id="path3229"
       style="opacity:1;fill:#55ddff;fill-opacity:1;stroke:#000000;stroke-width:5;stroke-miterlimit:4;stroke-opacity:1;stroke-dasharray:none"
       sodipodi:type="star" />
    <path
       inkscape:connector-curvature="0"
       id="path3231"
       d="m -1393.1234,309.01324 -70.25,122.8125 70.25,122.84374 67.4375,0 0,-245.65624 -67.4375,0 z"
       style="opacity:1;fill:#ff6600;fill-opacity:1;stroke:#000000;stroke-width:2.35329223000000010;stroke-miterlimit:4;stroke-opacity:1;stroke-dasharray:none" />
    <path
       transform="matrix(0.46851879,0,0,0.47280792,-1282.2806,326.02033)"
       d="m 1017.1429,223.79076 -150.00002,259.80762 -300,0 -150,-259.80762 150,-259.807625 300,0 z"
       inkscape:randomized="2.77556e-017"
       inkscape:rounded="0"
       inkscape:flatsided="true"
       sodipodi:arg2="0.52359878"
       sodipodi:arg1="0"
       sodipodi:r2="259.80762"
       sodipodi:r1="300"
       sodipodi:cy="223.79076"
       sodipodi:cx="717.14288"
       sodipodi:sides="6"
       id="path3233"
       style="opacity:1;fill:#55ddff;fill-opacity:1;stroke:#000000;stroke-width:5;stroke-miterlimit:4;stroke-opacity:1;stroke-dasharray:none"
       sodipodi:type="star" />
    <path
       inkscape:connector-curvature="0"
       id="path3235"
       d="m -1016.5914,309.01324 -70.25,122.8125 70.25,122.84374 67.43755,0 0,-245.65624 -67.43755,0 z"
       style="opacity:1;fill:#ffd42a;fill-opacity:1;stroke:#000000;stroke-width:2.35329223000000010;stroke-miterlimit:4;stroke-opacity:1;stroke-dasharray:none" />
    <path
       sodipodi:type="star"
       style="opacity:1;fill:#55ddff;fill-opacity:1;stroke:#000000;stroke-width:5;stroke-miterlimit:4;stroke-opacity:1;stroke-dasharray:none"
       id="path3237"
       sodipodi:sides="6"
       sodipodi:cx="717.14288"
       sodipodi:cy="223.79076"
       sodipodi:r1="300"
       sodipodi:r2="259.80762"
       sodipodi:arg1="0"
       sodipodi:arg2="0.52359878"
       inkscape:flatsided="true"
       inkscape:rounded="0"
       inkscape:randomized="2.77556e-017"
       d="m 1017.1429,223.79076 -150.00002,259.80762 -300,0 -150,-259.80762 150,-259.807625 300,0 z"
       transform="matrix(0.46851879,0,0,0.47280792,-1658.8126,606.02033)" />
    <path
       style="opacity:1;fill:#6c5d53;fill-opacity:1;stroke:#000000;stroke-width:2.35329223000000010;stroke-miterlimit:4;stroke-opacity:1;stroke-dasharray:none"
       d="m -1393.1234,589.01324 -70.25,122.8125 70.25,122.84374 67.4375,0 0,-245.65624 -67.4375,0 z"
       id="path3239"
       inkscape:connector-curvature="0" />
    <path
       sodipodi:type="star"
       style="opacity:1;fill:#55ddff;fill-opacity:1;stroke:#000000;stroke-width:5;stroke-miterlimit:4;stroke-opacity:1;stroke-dasharray:none"
       id="path3241"
       sodipodi:sides="6"
       sodipodi:cx="717.14288"
       sodipodi:cy="223.79076"
       sodipodi:r1="300"
       sodipodi:r2="259.80762"
       sodipodi:arg1="0"
       sodipodi:arg2="0.52359878"
       inkscape:flatsided="true"
       inkscape:rounded="0"
       inkscape:randomized="2.77556e-017"
       d="m 1017.1429,223.79076 -150.00002,259.80762 -300,0 -150,-259.80762 150,-259.807625 300,0 z"
       transform="matrix(0.46851879,0,0,0.47280792,-1282.2806,606.02033)" />
    <path
       style="opacity:1;fill:#d40000;fill-opacity:1;stroke:#000000;stroke-width:2.35329223000000010;stroke-miterlimit:4;stroke-opacity:1;stroke-dasharray:none"
       d="m -1016.5914,589.01324 -70.25,122.8125 70.25,122.84374 67.43755,0 0,-245.65624 -67.43755,0 z"
       id="path3243"
       inkscape:connector-curvature="0" />
    <path
       transform="matrix(0.46851879,0,0,0.47280792,-1658.8126,906.02033)"
       d="m 1017.1429,223.79076 -150.00002,259.80762 -300,0 -150,-259.80762 150,-259.807625 300,0 z"
       inkscape:randomized="2.77556e-017"
       inkscape:rounded="0"
       inkscape:flatsided="true"
       sodipodi:arg2="0.52359878"
       sodipodi:arg1="0"
       sodipodi:r2="259.80762"
       sodipodi:r1="300"
       sodipodi:cy="223.79076"
       sodipodi:cx="717.14288"
       sodipodi:sides="6"
       id="path3245"
       style="opacity:1;fill:#ffd42a;fill-opacity:1;stroke:#000000;stroke-width:5;stroke-miterlimit:4;stroke-opacity:1;stroke-dasharray:none"
       sodipodi:type="star" />
    <path
       inkscape:connector-curvature="0"
       id="path3247"
       d="m -1393.1234,889.01324 -70.25,122.81246 70.25,122.8438 67.4375,0 0,-245.65626 -67.4375,0 z"
       style="opacity:1;fill:#55ddff;fill-opacity:1;stroke:#000000;stroke-width:2.35329223000000010;stroke-miterlimit:4;stroke-opacity:1;stroke-dasharray:none" />
    <path
       transform="matrix(0.46851879,0,0,0.47280792,-1282.2806,906.02033)"
       d="m 1017.1429,223.79076 -150.00002,259.80762 -300,0 -150,-259.80762 150,-259.807625 300,0 z"
       inkscape:randomized="2.77556e-017"
       inkscape:rounded="0"
       inkscape:flatsided="true"
       sodipodi:arg2="0.52359878"
       sodipodi:arg1="0"
       sodipodi:r2="259.80762"
       sodipodi:r1="300"
       sodipodi:cy="223.79076"
       sodipodi:cx="717.14288"
       sodipodi:sides="6"
       id="path3249"
       style="opacity:1;fill:#ffd42a;fill-opacity:1;stroke:#000000;stroke-width:5;stroke-miterlimit:4;stroke-opacity:1;stroke-dasharray:none"
       sodipodi:type="star" />
    <path
       inkscape:connector-curvature="0"
       id="path3251"
       d="m -1016.5914,889.01324 -70.25,122.81246 70.25,122.8438 67.43755,0 0,-245.65626 -67.43755,0 z"
       style="opacity:1;fill:#00ff66;fill-opacity:1;stroke:#000000;stroke-width:2.35329223000000010;stroke-miterlimit:4;stroke-opacity:1;stroke-dasharray:none" />
    <path
       sodipodi:type="star"
       style="opacity:1;fill:#ffd42a;fill-opacity:1;stroke:#000000;stroke-width:5;stroke-miterlimit:4;stroke-opacity:1;stroke-dasharray:none"
       id="path3253"
       sodipodi:sides="6"
       sodipodi:cx="717.14288"
       sodipodi:cy="223.79076"
       sodipodi:r1="300"
       sodipodi:r2="259.80762"
       sodipodi:arg1="0"
       sodipodi:arg2="0.52359878"
       inkscape:flatsided="true"
       inkscape:rounded="0"
       inkscape:randomized="2.77556e-017"
       d="m 1017.1429,223.79076 -150.00002,259.80762 -300,0 -150,-259.80762 150,-259.807625 300,0 z"
       transform="matrix(0.46851879,0,0,0.47280792,-1658.8126,1186.0203)" />
    <path
       style="opacity:1;fill:#ff6600;fill-opacity:1;stroke:#000000;stroke-width:2.35329223000000010;stroke-miterlimit:4;stroke-opacity:1;stroke-dasharray:none"
       d="m -1393.1234,1169.0132 -70.25,122.8125 70.25,122.8438 67.4375,0 0,-245.6563 -67.4375,0 z"
       id="path3255"
       inkscape:connector-curvature="0" />
    <path
       sodipodi:type="star"
       style="opacity:1;fill:#ffd42a;fill-opacity:1;stroke:#000000;stroke-width:5;stroke-miterlimit:4;stroke-opacity:1;stroke-dasharray:none"
       id="path3257"
       sodipodi:sides="6"
       sodipodi:cx="717.14288"
       sodipodi:cy="223.79076"
       sodipodi:r1="300"
       sodipodi:r2="259.80762"
       sodipodi:arg1="0"
       sodipodi:arg2="0.52359878"
       inkscape:flatsided="true"
       inkscape:rounded="0"
       inkscape:randomized="2.77556e-017"
       d="m 1017.1429,223.79076 -150.00002,259.80762 -300,0 -150,-259.80762 150,-259.807625 300,0 z"
       transform="matrix(0.46851879,0,0,0.47280792,-1282.2806,1186.0203)" />
    <path
       style="opacity:1;fill:#ffd42a;fill-opacity:1;stroke:#000000;stroke-width:2.35329223000000010;stroke-miterlimit:4;stroke-opacity:1;stroke-dasharray:none"
       d="m -1016.5914,1169.0132 -70.25,122.8125 70.25,122.8438 67.43755,0 0,-245.6563 -67.43755,0 z"
       id="path3259"
       inkscape:connector-curvature="0" />
    <path
       transform="matrix(0.46851879,0,0,0.47280792,-1658.8126,1466.0203)"
       d="m 1017.1429,223.79076 -150.00002,259.80762 -300,0 -150,-259.80762 150,-259.807625 300,0 z"
       inkscape:randomized="2.77556e-017"
       inkscape:rounded="0"
       inkscape:flatsided="true"
       sodipodi:arg2="0.52359878"
       sodipodi:arg1="0"
       sodipodi:r2="259.80762"
       sodipodi:r1="300"
       sodipodi:cy="223.79076"
       sodipodi:cx="717.14288"
       sodipodi:sides="6"
       id="path3261"
       style="opacity:1;fill:#ffd42a;fill-opacity:1;stroke:#000000;stroke-width:5;stroke-miterlimit:4;stroke-opacity:1;stroke-dasharray:none"
       sodipodi:type="star" />
    <path
       inkscape:connector-curvature="0"
       id="path3263"
       d="m -1393.1234,1449.0132 -70.25,122.8125 70.25,122.8438 67.4375,0 0,-245.6563 -67.4375,0 z"
       style="opacity:1;fill:#6c5d53;fill-opacity:1;stroke:#000000;stroke-width:2.35329223000000010;stroke-miterlimit:4;stroke-opacity:1;stroke-dasharray:none" />
    <path
       transform="matrix(0.46851879,0,0,0.47280792,-1282.2806,1466.0203)"
       d="m 1017.1429,223.79076 -150.00002,259.80762 -300,0 -150,-259.80762 150,-259.807625 300,0 z"
       inkscape:randomized="2.77556e-017"
       inkscape:rounded="0"
       inkscape:flatsided="true"
       sodipodi:arg2="0.52359878"
       sodipodi:arg1="0"
       sodipodi:r2="259.80762"
       sodipodi:r1="300"
       sodipodi:cy="223.79076"
       sodipodi:cx="717.14288"
       sodipodi:sides="6"
       id="path3265"
       style="opacity:1;fill:#ffd42a;fill-opacity:1;stroke:#000000;stroke-width:5;stroke-miterlimit:4;stroke-opacity:1;stroke-dasharray:none"
       sodipodi:type="star" />
    <path
       inkscape:connector-curvature="0"
       id="path3267"
       d="m -1016.5914,1449.0132 -70.25,122.8125 70.25,122.8438 67.43755,0 0,-245.6563 -67.43755,0 z"
       style="opacity:1;fill:#d40000;fill-opacity:1;stroke:#000000;stroke-width:2.35329223000000010;stroke-miterlimit:4;stroke-opacity:1;stroke-dasharray:none" />
    <path
       sodipodi:type="star"
       style="opacity:1;fill:#ffffff;fill-opacity:1;stroke:#000000;stroke-width:5;stroke-miterlimit:4;stroke-opacity:1;stroke-dasharray:none"
       id="path3221-5"
       sodipodi:sides="6"
       sodipodi:cx="717.14288"
       sodipodi:cy="223.79076"
       sodipodi:r1="300"
       sodipodi:r2="259.80762"
       sodipodi:arg1="0"
       sodipodi:arg2="0.52359878"
       inkscape:flatsided="true"
       inkscape:rounded="0"
       inkscape:randomized="2.77556e-017"
       d="m 1017.1429,223.79076 -150.00002,259.80762 -300,0 -150,-259.80762 150,-259.807625 300,0 z"
       transform="matrix(0.46851879,0,0,0.47280792,-2016.8888,316.21695)" />
  </g>
</svg>
